<svg xmlns="http://www.w3.org/2000/svg" xmlns:xlink="http://www.w3.org/1999/xlink" width="30" height="30" viewBox="0 0 30 30" fill="none">
<path d="M26.7638 16.1557L3.42513 16.1557C2.73262 16.1557 2.16602 15.5891 2.16602 14.8966C2.16602 14.2041 2.73262 13.6375 3.42513 13.6375L26.7638 13.6375C27.4563 13.6375 28.0229 14.2041 28.0229 14.8966C28.0229 15.5891 27.4563 16.1557 26.7638 16.1557ZM13.8338 26.5644L13.8338 3.22572C13.8338 2.53322 14.4004 1.96661 15.093 1.96661C15.7855 1.96661 16.3521 2.53322 16.3521 3.22572L16.3521 26.5644C16.3521 27.2569 15.7855 27.8235 15.093 27.8235C14.4004 27.8235 13.8338 27.2569 13.8338 26.5644Z"   fill="#333333" >
</path>
</svg>
