<?xml version="1.0" standalone="no"?><!DOCTYPE svg PUBLIC "-//W3C//DTD SVG 1.1//EN" "http://www.w3.org/Graphics/SVG/1.1/DTD/svg11.dtd"><svg t="1713256530774" class="icon" viewBox="0 0 1024 1024" version="1.1" xmlns="http://www.w3.org/2000/svg" p-id="5695" xmlns:xlink="http://www.w3.org/1999/xlink" width="200" height="200"><path d="M964.74112 853.2992h-2.6112c-25.28256-42.97728-30.12096-83.38944-14.32064-120.16128 13.2352-30.82752 36.5824-48.27136 37.59104-49.01376 9.3952-6.66112 12.92288-18.8928 8.59648-29.65504a24.50944 24.50944 0 0 0-22.85056-15.5392c-1.28512 0-2.59584 0.10752-3.87072 0.29184-1.51552 0.22528-14.77632 2.42176-36.46464 7.82336-28.23168-63.44192-32.55296-127.82592-12.80512-191.44192 15.37024-49.5104 40.46848-80.44544 40.72448-80.76288a25.14944 25.14944 0 0 0 3.61984-26.32704 24.84224 24.84224 0 0 0-22.03648-14.65856c-0.22528 0-1.44384-0.0256-3.50208-0.0256-10.6752 0-39.18336 0.58368-73.08288 5.91872-42.77248 6.74816-77.9264 18.47296-104.53504 34.93888a456.3456 456.3456 0 0 0-6.8864-11.37152c-89.00096-143.7952-227.2512-225.58208-327.5264-268.87168C316.77952 47.83104 230.23104 34.86208 226.59584 34.33472a24.66816 24.66816 0 0 0-3.52768-0.256 24.76032 24.76032 0 0 0-22.44096 14.5152c-4.53632 9.9584-2.00704 21.95456 6.15936 29.184 0.82944 0.72192 82.39616 73.9584 134.15424 207.27808a624.67584 624.67584 0 0 1 15.81056 46.06464c-93.89568-67.93728-195.328-68.73088-199.71584-68.73088a24.73984 24.73984 0 0 0-22.56896 14.82752 25.15968 25.15968 0 0 0 4.28032 26.86464c16.20992 18.08896 53.16608 72.8064 76.928 150.38976 17.42848 56.89344 25.65632 117.59616 24.448 180.47488a450.1504 450.1504 0 0 1-0.256 9.10336c-95.50336-44.76416-173.98272-57.49248-177.32608-58.00448a25.5744 25.5744 0 0 0-3.85024-0.31232c-9.35424 0-18.05824 5.48864-22.17472 13.97248a24.82176 24.82176 0 0 0 5.26336 28.92288c0.83968 0.7936 82.78016 80.13824 114.62144 224.6656H63.68768c-13.8752 0-25.6 11.61216-25.6 25.34912v93.1072c0 13.2864 11.48416 24.07936 25.6 24.07936h901.05344c13.78304 0 24.14592-10.368 24.14592-24.07936V878.6432c0.00512-13.952-10.81856-25.344-24.14592-25.344z m-51.53792-167.6544l22.77888-6.9888-10.60352 21.34016c-0.78848 1.59232-1.60768 3.25632-2.4064 5.0176-12.89728 28.99968-22.82496 75.78112 3.18464 133.8624l6.46144 14.42304h-105.67168l3.328-12.81536c5.47328-21.0688 15.01184-65.31584 17.3568-124.88704l0.26112-6.64064 6.17472-2.46272a769.64352 769.64352 0 0 1 59.136-20.84864z m-135.8592-275.69664c33.25952-21.39136 80.80384-30.28992 114.83648-33.98144l19.01056-2.06336-8.82176 16.96768a322.87744 322.87744 0 0 0-21.15584 50.95936c-15.5904 49.05472-26.32192 126.17728 11.0592 214.99904l4.33664 10.30144-10.64448 3.42016c-11.776 3.78368-23.5008 7.86432-34.84672 12.12928l-13.22496 4.97152-0.60928-14.11072c-3.8144-88.0896-25.21088-172.35968-63.5904-250.46016l-4.02432-8.192 7.67488-4.9408z m-491.776-303.01696l-18.86208-24.48896 29.75232 8.38144a908.43136 908.43136 0 0 1 112.93184 40.05888c95.1296 41.05728 226.08384 118.35904 309.73952 253.46048 78.82752 127.32416 92.19584 252.98432 89.52832 335.98464-2.19648 67.21024-14.78144 117.37088-20.09088 135.808l-2.12992 7.40864H344.02816l5.98528-14.21312c46.08-109.44512 70.54848-216.42752 72.7296-317.97248 1.95584-91.4688-13.57312-179.95776-46.15168-263.00416-28.56448-72.83712-65.26464-127.98464-91.02336-161.42336z m-16.45056 516.57728c1.10592-67.34336-7.97184-132.46976-26.98752-193.5616-12.95872-41.6256-30.1824-80.47616-51.2-115.46112l-12.32384-20.51072 23.3472 5.248c47.88736 10.76224 116.49024 36.6848 171.37152 99.04128l1.9712 2.24256 0.4608 2.94912a667.40224 667.40224 0 0 1 7.76192 118.52288c-2.44224 103.82848-29.00992 213.25824-78.97088 325.248l-2.70848 6.07232H228.43904l4.1216-13.27616c23.10656-74.38848 35.4048-147.23072 36.5568-216.51456z m-168.7552 14.40768l-16.15872-24.0384 27.67872 8.54528a743.3216 743.3216 0 0 1 113.24416 45.39904l6.4 3.21024-0.8192 7.1168c-5.48352 47.70304-16.19968 96.95744-31.84128 146.3808l-11.52512 36.41856-8.23296-37.30432c-18.61632-84.36224-53.09952-147.56352-78.7456-185.728z m848.37888 318.4384H77.13792v-63.56992h871.6032v63.56992z" p-id="5696" fill="#1296db"></path></svg>