<?xml version="1.0" standalone="no"?><!DOCTYPE svg PUBLIC "-//W3C//DTD SVG 1.1//EN" "http://www.w3.org/Graphics/SVG/1.1/DTD/svg11.dtd"><svg t="1713256175978" class="icon" viewBox="0 0 1024 1024" version="1.1" xmlns="http://www.w3.org/2000/svg" p-id="4323" width="200" height="200" xmlns:xlink="http://www.w3.org/1999/xlink"><path d="M683.76576 501.57056c-13.4144 0-29.98272 20.56704-29.98272 11.07456 0-191.88224-72.13568-351.86176-131.81952-351.86176-57.45152 0-134.24128 159.97952-131.26144 357.51936 0.14336 9.49248-16.56832-16.73216-29.98272-16.73216-13.4144 0-24.32512-7.72096-24.32512-17.21344 0-99.25632 18.4576-190.73536 51.97824-257.59744 34.24256-68.10112 81.69472-105.61024 133.59104-105.61024s99.33824 37.50912 133.58592 105.62048c33.32608 66.45248 51.98336 157.96224 52.54656 257.64864-0.00512 9.43616-10.91584 17.152-24.33024 17.152z" p-id="4324" fill="#707070"></path><path d="M550.12864 111.20128v-16.67072a25.14944 25.14944 0 0 0-25.1648-25.15456 25.17504 25.17504 0 0 0-25.16992 25.15456v15.8464c-214.6048 8.78592-385.98144 183.9104-385.98144 399.1552 0 29.37856 3.3792 57.9328 9.4208 85.504h23.23968c12.8512-49.18272 57.47712-85.57056 111.00672-85.57056 53.57056 0 98.1504 36.38272 111.04256 85.57056h37.0176c12.89216-49.18272 57.472-85.57056 111.04256-85.57056 53.52448 0 98.15552 36.38272 111.04256 85.57056h37.01248c12.89216-49.18272 57.43616-85.57056 111.04256-85.57056 53.57568 0 98.11456 36.38272 111.04256 85.57056h23.19872c6.04672-27.52512 9.42592-56.12544 9.42592-85.504 0.01024-209.62816-162.5088-381.35808-369.21856-398.33088z m225.5616 341.68832c-50.64192 0-97.16736 21.16096-129.55136 55.87968-32.38912-34.71872-78.91456-55.87968-129.55648-55.87968-50.6368 0-97.16736 21.16096-129.55136 55.87968-32.384-34.72384-78.90944-55.87968-129.54624-55.87968a178.19648 178.19648 0 0 0-81.28512 19.49696c17.82272-167.25504 154.71104-298.46016 326.23616-305.48992l22.89664-0.93696 19.52768 1.60256c163.67616 13.44 294.38976 144.10752 312.04864 304.80896a178.10432 178.10432 0 0 0-81.21856-19.4816z" p-id="4325" fill="#707070"></path><path d="M399.11936 797.88032c11.3664 0 20.80256 7.83872 24.45312 18.66752h1.75616l-0.08704 8.97536c0 0.11776 0.08704 0.20992 0.08704 0.37888 0 0.11776-0.08704 0.24576-0.08704 0.36352l-0.20992 25.51296c0 17.57184 18.7136 39.33184 35.23072 39.33184 16.49664 0 34.944-19.65568 34.944-37.27872v-283.4176h52.42368v283.4176c0 52.58752-37.69856 93.19424-87.36768 93.19424-49.70496 0-87.3728-40.60672-87.3728-93.19424v-37.28384h1.77152c3.59936-10.8288 13.04064-18.66752 24.45824-18.66752z" p-id="4326" fill="#707070"></path></svg>